<svg width="34" height="34" viewBox="0 0 34 34" fill="none" xmlns="http://www.w3.org/2000/svg">
<g clip-path="url(#clip0_465_5)">
<path d="M16.9998 33.9997C26.3886 33.9997 33.9997 26.3886 33.9997 16.9998C33.9997 7.61109 26.3886 0 16.9998 0C7.61109 0 0 7.61109 0 16.9998C0 26.3886 7.61109 33.9997 16.9998 33.9997Z" fill="#55ACEE"/>
<path d="M27.4134 12.2175C26.6849 12.5406 25.9012 12.759 25.0794 12.8566C25.9185 12.3539 26.5625 11.5584 26.8664 10.609C26.0812 11.0748 25.2112 11.4126 24.286 11.5948C23.5448 10.8054 22.4887 10.312 21.3193 10.312C19.0756 10.312 17.2559 12.1318 17.2559 14.3755C17.2559 14.6939 17.2919 15.004 17.3616 15.3015C13.9846 15.1321 10.9902 13.5145 8.98594 11.0554C8.63624 11.6554 8.43563 12.3539 8.43563 13.0984C8.43563 14.5079 9.15352 15.7522 10.2432 16.4807C9.57747 16.4598 8.95049 16.277 8.4029 15.9719C8.40259 15.9891 8.40259 16.0064 8.40259 16.0234C8.40259 17.9922 9.80384 19.6344 11.6624 20.0074C11.3218 20.1008 10.9621 20.1502 10.592 20.1502C10.3296 20.1502 10.0754 20.125 9.82748 20.0777C10.3445 21.6917 11.8448 22.8666 13.6233 22.8996C12.2324 23.9897 10.4805 24.6391 8.57624 24.6391C8.24895 24.6391 7.9247 24.62 7.60742 24.5821C9.40474 25.7355 11.5412 26.4079 13.8358 26.4079C21.3099 26.4079 25.3973 20.2162 25.3973 14.8461C25.3973 14.67 25.3934 14.4945 25.3855 14.3206C26.18 13.7479 26.8688 13.0324 27.4134 12.2175Z" fill="#F1F2F2"/>
</g>
<defs>
<clipPath id="clip0_465_5">
<rect width="34" height="34" fill="white"/>
</clipPath>
</defs>
</svg>
