<svg width="34" height="34" fill="none" xmlns="http://www.w3.org/2000/svg"><path d="M17 34c9.389 0 17-7.611 17-17S26.389 0 17 0 0 7.611 0 17s7.611 17 17 17z" fill="#007AB9"/><path d="M27.158 18.368v7.008h-4.064v-6.539c0-1.642-.586-2.763-2.058-2.763-1.123 0-1.79.755-2.084 1.486-.107.261-.135.624-.135.99v6.826h-4.063s.054-11.075 0-12.221h4.064v1.732c-.008.013-.02.027-.027.04h.027v-.04c.54-.831 1.503-2.02 3.662-2.02 2.673 0 4.678 1.747 4.678 5.5zM10.503 7.264c-1.39 0-2.3.912-2.3 2.111 0 1.173.883 2.112 2.246 2.112h.027c1.417 0 2.298-.939 2.298-2.112-.027-1.199-.881-2.111-2.271-2.111zM8.445 25.376h4.062V13.155H8.445v12.221z" fill="#F1F2F2"/></svg>