<svg width="34" height="34" viewBox="0 0 34 34" fill="none" xmlns="http://www.w3.org/2000/svg">
<path d="M17 34C26.3888 34 34 26.3888 34 17C34 7.61116 26.3888 0 17 0C7.61116 0 0 7.61116 0 17C0 26.3888 7.61116 34 17 34Z" fill="#007AB9"/>
<path d="M27.1577 18.3677V25.3764H23.0943V18.8374C23.0943 17.1955 22.5076 16.0743 21.0363 16.0743C19.9135 16.0743 19.2465 16.8292 18.952 17.5601C18.845 17.8213 18.8174 18.1841 18.8174 18.5504V25.3761H14.7537C14.7537 25.3761 14.8082 14.3012 14.7537 13.1548H18.8177V14.8867C18.8096 14.9003 18.798 14.9136 18.7908 14.9267H18.8177V14.8867C19.3578 14.0557 20.3208 12.8678 22.48 12.8678C25.1534 12.8678 27.1577 14.6145 27.1577 18.3677ZM10.5026 7.26367C9.11255 7.26367 8.20312 8.17613 8.20312 9.37496C8.20312 10.5483 9.08619 11.4872 10.4493 11.4872H10.4756C11.893 11.4872 12.7742 10.5483 12.7742 9.37496C12.7472 8.17613 11.893 7.26367 10.5026 7.26367ZM8.44465 25.3764H12.5069V13.1548H8.44465V25.3764Z" fill="#F1F2F2"/>
</svg>
