<svg width="34" height="34" fill="none" xmlns="http://www.w3.org/2000/svg"><g clip-path="url(#clip0_465_5)"><path d="M17 34c9.389 0 17-7.611 17-17S26.389 0 17 0 0 7.611 0 17s7.611 17 17 17z" fill="#55ACEE"/><path d="M27.413 12.217a8.106 8.106 0 01-2.334.64 4.074 4.074 0 001.787-2.248 8.136 8.136 0 01-2.58.986 4.064 4.064 0 00-6.924 3.707 11.535 11.535 0 01-8.376-4.247 4.063 4.063 0 001.257 5.425 4.035 4.035 0 01-1.84-.508v.051a4.066 4.066 0 003.26 3.984 4.046 4.046 0 01-1.836.07 4.068 4.068 0 003.796 2.823 8.152 8.152 0 01-6.016 1.682 11.494 11.494 0 006.229 1.826c7.474 0 11.561-6.192 11.561-11.562 0-.176-.004-.351-.011-.525a8.24 8.24 0 002.027-2.104z" fill="#F1F2F2"/></g><defs><clipPath id="clip0_465_5"><path fill="#fff" d="M0 0h34v34H0z"/></clipPath></defs></svg>